<svg xmlns="http://www.w3.org/2000/svg" width="40" height="40" viewBox="0 0 40 40" fill="none"><rect x="0.5" y="0.5" width="39" height="39" rx="4.5" fill="#EBF3FF" stroke="#3D86F5"></rect><path d="M11.9357 20.44C10.9482 18.718 10.4713 17.3119 10.1838 15.8867C9.75859 13.7787 10.7317 11.7196 12.3438 10.4057C13.0251 9.85038 13.8061 10.0401 14.209 10.7629L15.1185 12.3947C15.8395 13.6881 16.2 14.3348 16.1285 15.0204C16.057 15.706 15.5708 16.2644 14.5985 17.3812L11.9357 20.44ZM11.9357 20.44C13.9345 23.9253 17.0713 27.0638 20.5606 29.065M20.5606 29.065C22.2826 30.0525 23.6887 30.5294 25.114 30.8169C27.2219 31.2421 29.2811 30.2689 30.5949 28.6569C31.1502 27.9756 30.9605 27.1946 30.2377 26.7916L28.606 25.8821C27.3125 25.1611 26.6659 24.8007 25.9802 24.8722C25.2946 24.9436 24.7362 25.4298 23.6194 26.4021L20.5606 29.065Z" stroke="#3D86F5" stroke-width="1.5" stroke-linejoin="round"></path><path d="M20.5 15.2917H21.3928C21.8137 15.2917 22.0242 15.2917 22.155 15.4188C22.2857 15.5459 22.2857 15.7505 22.2857 16.1597C22.2857 16.9782 22.2857 17.3874 22.0242 17.6416C21.8253 17.835 21.5343 17.8813 21.0359 17.8924C20.7804 17.8981 20.6526 17.9009 20.5763 17.9768C20.5 18.0527 20.5 18.174 20.5 18.4167V19.632C20.5 20.0412 20.5 20.2458 20.6307 20.3729C20.7616 20.5 20.972 20.5 21.3928 20.5H22.2857M26.75 15.2917V17.8959M26.75 17.8959H25.2322C24.8954 17.8959 24.7271 17.8959 24.6225 17.7942C24.5178 17.6925 24.5178 17.5288 24.5178 17.2014V15.2917M26.75 17.8959V20.5" stroke="#3D86F5" stroke-width="1.5" stroke-linecap="round" stroke-linejoin="round"></path><path d="M18.416 12.4845C18.5087 12.3804 18.6051 12.2783 18.705 12.1784C21.4984 9.38495 26.0275 9.38495 28.8209 12.1784C31.6143 14.9719 31.6143 19.5009 28.8209 22.2944C28.721 22.3943 28.6189 22.4906 28.5148 22.5833" stroke="#3D86F5" stroke-width="1.5" stroke-linecap="round"></path></svg>