<svg xmlns="http://www.w3.org/2000/svg" width="40" height="40" viewBox="0 0 40 40" fill="none"><rect x="0.5" y="0.5" width="39" height="39" rx="4.5" fill="#EBF3FF" stroke="#3D86F5"></rect><path d="M18.459 29.3959C14.553 29.3959 12.6 29.3959 11.2309 28.3459C10.7888 28.0068 10.3999 27.5964 10.0787 27.1296C9.08398 25.6845 9.08398 23.623 9.08398 19.5C9.08398 15.3771 9.08398 13.3156 10.0787 11.8704C10.3999 11.4037 10.7888 10.9932 11.2309 10.6542C12.6 9.60419 14.553 9.60419 18.459 9.60419H20.5423C24.4483 9.60419 26.4013 9.60419 27.7703 10.6542C28.2125 10.9932 28.6014 11.4037 28.9226 11.8704C29.9173 13.3156 29.9173 15.3771 29.9173 19.5C29.9173 23.623 29.9173 25.6845 28.9226 27.1296C28.6014 27.5964 28.2125 28.0068 27.7703 28.3459C26.4013 29.3959 24.4483 29.3959 20.5423 29.3959H18.459Z" stroke="#3D86F5" stroke-width="1.5"></path><path d="M9.60352 22.625H29.3952" stroke="#3D86F5" stroke-width="1.5" stroke-linecap="round" stroke-linejoin="round"></path><path d="M14.3003 25.75H14.291M18.4577 25.75H18.4483" stroke="#3D86F5" stroke-width="2" stroke-linecap="round" stroke-linejoin="round"></path><path d="M24.7077 17.625C24.2334 17.625 23.7342 17.6544 23.3086 17.3928C23.1463 17.2931 23.0386 17.1553 22.8233 16.8797L20.8014 14.2917L18.1973 18.4584L16.3154 16.6517C16.0485 16.3956 15.7884 16.1359 15.4352 16.0331C15.1784 15.9584 14.8826 15.9584 14.291 15.9584" stroke="#3D86F5" stroke-width="1.5" stroke-linecap="round" stroke-linejoin="round"></path></svg>