<?xml version="1.0" encoding="iso-8859-1"?>
<!-- Uploaded to: SVG Repo, www.svgrepo.com, Generator: SVG Repo Mixer Tools -->
<svg fill="#4d55dd" height="800px" width="800px" version="1.1" id="Layer_1" xmlns="http://www.w3.org/2000/svg" xmlns:xlink="http://www.w3.org/1999/xlink" 
	 viewBox="0 0 476.161 476.161" xml:space="preserve">
<g>
	<g>
		<path d="M169.745,277.771L169.745,277.771c-18.754,0.001-34.013-15.254-34.013-34.011V136.37h-1.948H18.652
			C8.351,136.37,0,144.723,0,155.021v186.516c0,10.301,8.351,18.65,18.652,18.65h32.863v68.004c0,8.337,10.078,12.511,15.974,6.616
			l74.619-74.62h164.311c10.3,0,18.651-8.349,18.651-18.65v-61.808v-1.958H169.745z"/>
	</g>
</g>
<g>
	<g>
		<path d="M457.509,38.595H169.743c-10.3,0-18.65,8.351-18.65,18.651v186.516c0,10.3,8.35,18.65,18.65,18.65h164.311l74.619,74.62
			c5.894,5.895,15.974,1.72,15.974-6.617v-68.003h32.863c10.301,0,18.651-8.35,18.651-18.65V57.246
			C476.16,46.946,467.81,38.595,457.509,38.595z M226.188,169.147c-12.342,0-22.345-10.005-22.345-22.346
			s10.003-22.345,22.345-22.345c12.34,0,22.346,10.004,22.346,22.345S238.528,169.147,226.188,169.147z M313.627,169.147
			c-12.342,0-22.346-10.005-22.346-22.346s10.004-22.345,22.346-22.345c12.34,0,22.345,10.004,22.345,22.345
			S325.967,169.147,313.627,169.147z M401.065,169.147c-12.34,0-22.346-10.005-22.346-22.346s10.005-22.345,22.346-22.345
			c12.343,0,22.346,10.004,22.346,22.345S413.408,169.147,401.065,169.147z"/>
	</g>
</g>
</svg>