<svg xmlns="http://www.w3.org/2000/svg" width="40" height="40" viewBox="0 0 40 40" fill="none"><rect x="0.5" y="0.5" width="39" height="39" rx="4.5" fill="#EBF3FF" stroke="#3D86F5"></rect><path d="M25.709 22.3797C25.709 22.0196 25.709 21.8396 25.7632 21.6792C25.9207 21.2129 26.3359 21.0321 26.7518 20.8426C27.2194 20.6296 27.4532 20.5231 27.6848 20.5044C27.9478 20.4831 28.2113 20.5398 28.4361 20.6659C28.7341 20.8331 28.9419 21.1509 29.1547 21.4094C30.1373 22.6029 30.6287 23.1998 30.8085 23.8579C30.9536 24.389 30.9536 24.9444 30.8085 25.4754C30.5463 26.4353 29.7178 27.24 29.1046 27.9848C28.791 28.3657 28.6341 28.5562 28.4361 28.6674C28.2113 28.7935 27.9478 28.8502 27.6848 28.829C27.4532 28.8102 27.2194 28.7037 26.7518 28.4907C26.3359 28.3012 25.9207 28.1204 25.7632 27.6542C25.709 27.4937 25.709 27.3137 25.709 26.9536V22.3797Z" stroke="#3D86F5" stroke-width="1.5"></path><path d="M17.8965 29.875C19.3347 31.2639 21.6666 31.2639 23.1048 29.875" stroke="#3D86F5" stroke-width="1.5" stroke-linecap="round" stroke-linejoin="round"></path><path d="M15.2923 22.3797C15.2923 21.9263 15.2796 21.5189 14.9131 21.2002C14.7797 21.0842 14.603 21.0037 14.2495 20.8427C13.7819 20.6298 13.5481 20.5233 13.3164 20.5046C12.6214 20.4483 12.2474 20.9227 11.8466 21.4094C10.8639 22.603 10.3726 23.1998 10.1928 23.8579C10.0477 24.3889 10.0477 24.9443 10.1928 25.4754C10.455 26.4353 11.2835 27.2398 11.8967 27.9846C12.2832 28.454 12.6525 28.8825 13.3164 28.8287C13.5481 28.81 13.7819 28.7035 14.2495 28.4905C14.603 28.3296 14.7797 28.249 14.9131 28.1331C15.2796 27.8143 15.2923 27.4069 15.2923 26.9535V22.3797Z" stroke="#3D86F5" stroke-width="1.5"></path><path d="M10.084 24.6666V20.5C10.084 14.747 14.7477 10.0833 20.5007 10.0833C26.2536 10.0833 30.9173 14.747 30.9173 20.5L30.9174 24.6666" stroke="#3D86F5" stroke-width="1.5" stroke-linecap="round" stroke-linejoin="round"></path></svg>