<svg xmlns="http://www.w3.org/2000/svg" width="40" height="40" viewBox="0 0 40 40" fill="none"><rect x="0.5" y="0.5" width="39" height="39" rx="4.5" fill="#EBF3FF" stroke="#3D86F5"></rect><path d="M28.6673 30.8333V27.5833C28.6673 24.5192 28.6673 22.9872 27.7154 22.0352C26.7635 21.0833 25.2314 21.0833 22.1673 21.0833L20.0007 23.25L17.834 21.0833C14.7699 21.0833 13.2378 21.0833 12.2859 22.0352C11.334 22.9872 11.334 24.5192 11.334 27.5833V30.8333" stroke="#3D86F5" stroke-width="1.5" stroke-linecap="round" stroke-linejoin="round"></path><path d="M24.334 21.0833V27.0416" stroke="#3D86F5" stroke-width="1.5" stroke-linecap="round" stroke-linejoin="round"></path><path d="M16.2077 21.0833V25.4166M16.2077 25.4166C17.4043 25.4166 18.3743 26.3867 18.3743 27.5833V28.6666M16.2077 25.4166C15.0111 25.4166 14.041 26.3867 14.041 27.5833V28.6666" stroke="#3D86F5" stroke-width="1.5" stroke-linecap="round" stroke-linejoin="round"></path><path d="M23.7923 14.0417V12.9584C23.7923 10.8643 22.0947 9.16669 20.0007 9.16669C17.9066 9.16669 16.209 10.8643 16.209 12.9584V14.0417C16.209 16.1358 17.9066 17.8334 20.0007 17.8334C22.0947 17.8334 23.7923 16.1358 23.7923 14.0417Z" stroke="#3D86F5" stroke-width="1.5" stroke-linecap="round" stroke-linejoin="round"></path><path d="M25.1465 27.8542C25.1465 28.3029 24.7827 28.6667 24.334 28.6667C23.8853 28.6667 23.5215 28.3029 23.5215 27.8542C23.5215 27.4055 23.8853 27.0417 24.334 27.0417C24.7827 27.0417 25.1465 27.4055 25.1465 27.8542Z" stroke="#3D86F5" stroke-width="1.5"></path></svg>