<svg xmlns="http://www.w3.org/2000/svg" width="40" height="40" viewBox="0 0 40 40" fill="none"><rect x="0.5" y="0.5" width="39" height="39" rx="4.5" fill="#EBF3FF" stroke="#3D86F5"></rect><path d="M20.541 27.5833V30.8333" stroke="#3D86F5" stroke-width="1.5" stroke-linecap="round" stroke-linejoin="round"></path><path d="M18.375 30.8333H22.7083" stroke="#3D86F5" stroke-width="1.5" stroke-linecap="round" stroke-linejoin="round"></path><path d="M21.6257 24.3334C17.4375 24.3334 14.0423 20.9382 14.0423 16.75C14.0423 12.5619 17.4375 9.16669 21.6257 9.16669C25.8138 9.16669 29.209 12.5619 29.209 16.75C29.209 20.9382 25.8138 24.3334 21.6257 24.3334Z" stroke="#3D86F5" stroke-width="1.5" stroke-linecap="round"></path><path d="M16.209 11.3334C16.9178 11.3751 17.284 11.7223 17.9136 12.3874C19.0507 13.5889 20.1877 13.6892 20.9458 13.2887C22.0828 12.688 21.1273 11.7149 22.4619 11.1861C23.3317 10.8415 23.453 9.90364 22.9689 9.16669" stroke="#3D86F5" stroke-width="1.5" stroke-linejoin="round"></path><path d="M28.6673 17.8333C27.0423 17.8333 26.7539 19.184 25.4173 18.9166C22.709 18.375 21.9415 18.9805 21.9415 20.272C21.9415 21.5634 21.9415 21.5634 21.3783 22.5321C21.0119 23.1621 20.8839 23.7921 21.6142 24.3333" stroke="#3D86F5" stroke-width="1.5" stroke-linejoin="round"></path><path d="M14.041 9.16669C12.0354 11.1166 10.791 13.8339 10.791 16.8394C10.791 22.7731 15.6413 27.5834 21.6243 27.5834C24.577 27.5834 27.2536 26.4119 29.2077 24.5121" stroke="#3D86F5" stroke-width="1.5" stroke-linecap="round"></path></svg>