<svg xmlns="http://www.w3.org/2000/svg" width="20" height="21" viewBox="0 0 20 21" fill="none"><path d="M8.75033 18.8333H5.49272C4.2049 18.8333 3.18058 18.2067 2.26088 17.3305C0.378131 15.5368 3.46933 14.1033 4.6483 13.4013C6.7737 12.1358 9.33841 11.8432 11.667 12.5234" stroke="#25292E" stroke-width="1.5" stroke-linecap="round" stroke-linejoin="round"></path><path d="M13.75 5.91669C13.75 7.98775 12.0711 9.66669 10 9.66669C7.92893 9.66669 6.25 7.98775 6.25 5.91669C6.25 3.84562 7.92893 2.16669 10 2.16669C12.0711 2.16669 13.75 3.84562 13.75 5.91669Z" stroke="#25292E" stroke-width="1.5"></path><path d="M15.3607 12.0404C15.6401 11.7376 15.7798 11.5862 15.9282 11.4979C16.2865 11.2848 16.7277 11.2782 17.0919 11.4804C17.2428 11.5642 17.3868 11.7114 17.6749 12.0056C17.9629 12.2998 18.1069 12.447 18.189 12.6012C18.3869 12.9732 18.3804 13.4239 18.1718 13.7898C18.0854 13.9415 17.9372 14.0842 17.6408 14.3697L14.1145 17.7662C13.5528 18.3072 13.272 18.5777 12.921 18.7147C12.5701 18.8518 12.1842 18.8417 11.4125 18.8216L11.3075 18.8188C11.0726 18.8127 10.9552 18.8096 10.8868 18.7321C10.8186 18.6546 10.8279 18.5349 10.8465 18.2957L10.8567 18.1657C10.9092 17.4922 10.9353 17.1554 11.0669 16.8527C11.1984 16.5499 11.4252 16.3042 11.879 15.8125L15.3607 12.0404Z" stroke="#25292E" stroke-width="1.5" stroke-linejoin="round"></path></svg>