<svg xmlns="http://www.w3.org/2000/svg" width="200" height="47" viewBox="0 0 200 47" fill="none"><path d="M12.4569 18.2151V34.6081H9.17243V28.0386H3.28443V34.6081H0V18.2151H3.28443V24.7747H9.17243V18.2151H12.4569Z" fill="#25292E"></path><path d="M17.9747 21.4592V24.6624H23.6287V27.9474H17.9747V31.3336H24.564V34.6081H14.6797V18.2151H24.564V21.4592H17.9747Z" fill="#25292E"></path><path d="M33.0812 17.8087H32.9794L25.1494 34.6081H28.7088L29.7564 32.3198H36.3153L37.3524 34.6081H40.9217L33.0812 17.8087ZM31.0368 29.5133L33.0402 25.1303L35.0331 29.5133H31.0368Z" fill="#25292E"></path><path d="M51.8179 31.3336V34.6081H41.9336V18.2151H45.2286V31.3336H51.8179Z" fill="#25292E"></path><path d="M56.3389 18.2151H53.0439V34.6075H56.3389V18.2151Z" fill="#25292E"></path><path d="M71.7408 18.1748V34.9129H71.5881L61.8565 25.4456V34.6286H58.5615V17.9104H58.7241L68.4359 27.3572V18.1748H71.7408Z" fill="#25292E"></path><path d="M89.7048 26.7881C89.7048 31.9338 86.1559 34.9333 81.8847 34.9333C77.0543 34.9333 73.251 31.1096 73.251 26.4318C73.251 21.7541 77.0747 17.8794 81.7624 17.8794C83.8875 17.8999 86.1553 18.8761 87.7622 20.442L85.9319 23.1778C84.6503 21.9272 83.1862 21.2153 81.7221 21.2153C79.1799 21.2153 76.6068 23.3714 76.6068 26.4318C76.6068 29.2793 78.8237 31.6179 82.0268 31.6179C84.366 31.6179 86.0436 30.4182 86.1553 28.4452H81.9151V25.4047H89.6235C89.6744 25.8825 89.7048 26.34 89.7048 26.7874V26.7881Z" fill="#25292E"></path><path d="M95.6953 33.8454L97.363 30.9575C97.9327 31.4354 98.5527 31.6899 99.3968 31.6899H99.4682C101.279 31.6899 102.733 30.1544 102.733 28.385L102.672 18.2158L105.967 18.2257L106.028 28.4048C106.028 32.0964 103.119 34.9743 99.4887 34.9743H99.3769C97.9942 34.9743 96.7634 34.5876 95.6959 33.8454H95.6953Z" fill="#25292E"></path><path d="M115.917 17.88C111.229 17.88 107.396 21.7237 107.396 26.4325C107.396 31.1412 111.229 34.9234 115.907 34.9234C120.585 34.9234 124.449 31.0997 124.449 26.4325C124.449 21.7652 120.605 17.88 115.917 17.88ZM115.907 31.5875C113.05 31.5875 110.721 29.2588 110.721 26.4113C110.721 23.5639 113.05 21.2048 115.907 21.2048C118.764 21.2048 121.114 23.544 121.114 26.4113C121.114 29.2787 118.774 31.5875 115.907 31.5875Z" fill="#25292E"></path><path d="M125.816 28.5469V18.2151H129.132V28.537C129.132 30.3269 130.546 31.6284 132.132 31.6284C133.718 31.6284 135.152 30.3164 135.152 28.537V18.2151H138.467V28.5469C138.467 32.2584 135.63 34.9637 132.142 34.9637C128.654 34.9637 125.817 32.259 125.817 28.5469H125.816Z" fill="#25292E"></path><path d="M148.439 28.0895C150.198 27.4695 151.469 25.6287 151.469 23.5235C151.469 20.5742 148.958 18.2151 145.897 18.2151H140.548L140.558 34.6075H143.853V26.8588L149.069 34.6075H153.096L148.439 28.0889V28.0895ZM145.958 25.6082L143.843 25.5983V21.4797H145.958C147.066 21.4797 148.073 22.3747 148.073 23.544C148.073 24.7132 147.076 25.6188 145.958 25.6082Z" fill="#25292E"></path><path d="M167.216 18.1748V34.9129H167.064L157.332 25.4456V34.6286H154.037V17.9104H154.2L163.911 27.3572V18.1748H167.216Z" fill="#25292E"></path><path d="M172.734 21.4592V24.6624H178.388V27.9474H172.734V31.3336H179.324V34.6081H169.439V18.2151H179.324V21.4592H172.734Z" fill="#25292E"></path><path d="M184.983 27.5707L179.908 18.2151H183.63L186.62 23.9101L189.609 18.2151H193.341L188.257 27.5707V34.6081H184.983V27.5707Z" fill="#25292E"></path><path d="M112.847 34.3512C111.91 33.9875 111.051 33.4618 110.307 32.8095C109.358 33.6107 108.38 34.3847 107.373 35.1307C104.108 37.5512 100.61 39.5738 96.8734 41.1807C96.766 41.2266 96.6673 41.2514 96.5668 41.2527C96.4731 41.2539 96.3955 41.2347 96.344 41.2185C96.3142 41.2092 96.2925 41.1999 96.2887 41.1987C96.0237 41.0901 89.3332 39.3287 83.9864 35.9866C83.4254 35.6359 82.5267 35.0475 81.4647 34.2171C80.6263 34.3344 79.5321 34.353 78.3944 33.9341C75.4588 32.8523 74.0469 29.522 73.9432 29.5865C73.8855 29.6225 74.2852 30.6708 75.182 31.9164C77.9426 35.7513 82.1623 36.9442 94.9432 41.6753C95.0419 41.712 95.2063 41.7728 95.2976 41.8069C95.1536 41.8665 95.0884 41.8957 95.022 41.9205C91.8766 43.1022 88.6437 43.9221 85.2997 44.305C81.7416 44.7127 78.248 44.4322 74.8071 43.4411C70.7631 42.2761 67.0851 40.3664 63.6381 37.9856C59.6046 35.1996 56.0278 31.8965 52.7204 28.2931C48.2351 23.4056 44.3319 18.0792 40.801 12.4742C40.263 11.6202 39.7391 10.7569 39.2085 9.89734C39.1942 9.90417 39.1799 9.91161 39.165 9.91844C39.2103 10.0153 39.2513 10.1139 39.3003 10.2089C40.9972 13.4611 42.8274 16.6356 44.8358 19.7059C48.852 25.8472 53.05 31.7314 58.5607 36.6059C61.7296 39.4094 65.5186 41.6623 69.3393 43.5298C73.4964 45.5618 77.8855 46.6324 82.5037 46.7634C84.4376 46.818 86.3628 46.7063 88.2639 46.2979C89.1421 46.1092 90.0327 45.9807 90.9084 45.7815C93.6448 45.1578 96.2757 44.2156 98.8507 43.109C99.0133 43.0389 99.2349 43.0203 99.405 43.0668C102.737 43.9754 106.111 44.6786 109.524 45.2031C109.82 45.2484 110.123 45.2496 110.422 45.2713C110.425 45.2422 110.428 45.2136 110.431 45.1844C106.97 44.4843 103.55 43.6297 100.124 42.5349C100.255 42.4679 100.317 42.4338 100.381 42.4027C104.907 40.2355 109.077 37.571 112.847 34.3518L112.847 34.3512Z" fill="#3D86F5" fill-opacity="0.7"></path><path d="M125.963 11.8511C125.862 9.52248 125.188 7.38624 123.812 5.49142C122.606 3.83059 121.044 2.57131 119.259 1.58884C116.44 0.036621 113.5 -0.17874 110.461 0.875727C109.467 1.2208 107.652 1.91282 105.028 4.09809C103.275 5.55784 100.723 8.03729 98.4101 11.8884C97.6883 11.1256 96.6109 10.0395 95.2212 8.82302C93.1433 7.00393 90.981 5.13828 87.7605 3.64068C86.1419 2.88846 84.7765 2.25354 82.7731 2.04377C81.7496 1.93702 79.2484 1.708 76.4767 3.0219C73.811 4.2849 72.4158 6.26474 71.9075 7.00641C68.7001 11.6817 69.9637 17.1315 70.2262 18.1742C70.1164 16.6822 70.1282 13.9296 71.524 10.9884C71.9063 10.1828 72.4884 8.9819 73.6478 7.80269C76.2688 5.13704 80.2191 4.23215 83.4973 4.76962C85.5908 5.11283 86.9388 5.89484 89.4803 7.68414C92.8405 10.05 95.7506 12.8938 98.3269 16.0864C98.4945 16.2943 98.667 16.4979 98.8365 16.7033C99.575 15.4843 100.259 14.2803 101.016 13.1241C102.794 10.405 104.831 7.90447 107.4 5.87932C108.715 4.84224 110.137 3.99196 111.756 3.51158C113.976 2.85308 116.086 3.10444 118.074 4.29607C119.575 5.19476 120.879 6.30447 121.791 7.82193C122.968 9.77819 123.237 11.9051 122.925 14.1245C122.648 16.1 122.02 17.9452 121.155 19.6935C121.962 20.3253 122.653 21.0993 123.191 21.9762C123.493 21.4208 123.782 20.856 124.055 20.2807C125.321 17.6125 126.093 14.8345 125.963 11.8511Z" fill="#3D86F5" fill-opacity="0.7"></path><path d="M200 20.5426C200 22.1326 198.721 23.3944 197.096 23.3944C195.471 23.3944 194.175 22.1326 194.175 20.5426C194.175 18.9525 195.471 17.7081 197.114 17.7081C198.756 17.7081 200 18.9525 200 20.5426ZM194.901 20.5426C194.901 21.8043 195.852 22.8067 197.114 22.8067C198.341 22.824 199.274 21.8043 199.274 20.5593C199.274 19.3143 198.341 18.2779 197.079 18.2779C195.817 18.2779 194.901 19.2976 194.901 20.5419V20.5426ZM196.647 22.0116H195.99V19.1772C196.25 19.1424 196.613 19.0909 197.079 19.0909C197.615 19.0909 197.857 19.1772 198.048 19.3156C198.221 19.4366 198.341 19.6439 198.341 19.9207C198.341 20.2664 198.082 20.491 197.753 20.5947V20.6295C198.03 20.7157 198.168 20.9404 198.255 21.3208C198.341 21.7528 198.411 21.9086 198.462 22.0122H197.771C197.685 21.9086 197.632 21.6665 197.546 21.3208C197.495 21.0273 197.321 20.8889 196.958 20.8889H196.647V22.0122H196.647V22.0116ZM196.664 20.4215H196.975C197.338 20.4215 197.632 20.3005 197.632 20.007C197.632 19.7475 197.442 19.575 197.027 19.575C196.853 19.575 196.732 19.5924 196.664 19.6097V20.4222H196.664V20.4215Z" fill="#25292E"></path><path d="M39.8933 8.14714L38.2337 7.90695L37.1327 9.38842L37.5728 7.29748L36.1633 5.2984L34.1226 7.47126L33.3232 7.04115L35.2218 3.87837C35.2218 3.87837 33.4294 0.832897 34.2207 0.436308C35.012 0.039719 36.5431 3.30428 36.5431 3.30428L40.3836 4.15518L40.4339 4.71375L37.3301 4.76713L38.2387 7.02129L39.8933 8.14776V8.14714Z" fill="#3D86F5" fill-opacity="0.7"></path></svg>