<?xml version="1.0" encoding="UTF-8"?>
<svg xmlns="http://www.w3.org/2000/svg" xmlns:xlink="http://www.w3.org/1999/xlink" width="2001" height="2001" viewBox="0 0 2001 2001">
<path fill-rule="evenodd" fill="rgb(90.234375%, 90.234375%, 90.234375%)" fill-opacity="1" d="M 684.074219 344.128906 L 1315.929688 344.128906 C 1352.960938 344.128906 1383.269531 374.429688 1383.269531 411.480469 L 1383.269531 1291.140625 C 1383.269531 1328.183594 1352.960938 1358.484375 1315.929688 1358.484375 L 684.074219 1358.484375 C 647.039062 1358.484375 616.734375 1328.183594 616.734375 1291.140625 L 616.734375 411.480469 C 616.734375 374.429688 647.039062 344.128906 684.074219 344.128906 "/>
<path fill-rule="nonzero" fill="rgb(14.501953%, 32.93457%, 68.943787%)" fill-opacity="1" d="M 684.074219 304.359375 L 1315.929688 304.359375 C 1345.421875 304.359375 1372.210938 316.398438 1391.601562 335.800781 C 1411 355.191406 1423.039062 381.980469 1423.039062 411.480469 L 1423.039062 1291.140625 C 1423.039062 1320.640625 1411 1347.429688 1391.601562 1366.820312 C 1372.210938 1386.214844 1345.421875 1398.253906 1315.929688 1398.253906 L 684.074219 1398.253906 C 654.578125 1398.253906 627.789062 1386.214844 608.394531 1366.820312 C 589.003906 1347.429688 576.964844 1320.640625 576.964844 1291.140625 L 576.964844 411.480469 C 576.964844 381.980469 589.003906 355.191406 608.394531 335.800781 C 627.789062 316.398438 654.578125 304.359375 684.074219 304.359375 Z M 1315.929688 383.898438 L 684.074219 383.898438 C 676.535156 383.898438 669.648438 387.019531 664.632812 392.03125 C 659.617188 397.050781 656.503906 403.941406 656.503906 411.480469 L 656.503906 1291.140625 C 656.503906 1298.683594 659.617188 1305.566406 664.632812 1310.585938 C 669.648438 1315.601562 676.535156 1318.714844 684.074219 1318.714844 L 1315.929688 1318.714844 C 1323.460938 1318.714844 1330.351562 1315.601562 1335.371094 1310.585938 C 1340.378906 1305.566406 1343.5 1298.683594 1343.5 1291.140625 L 1343.5 411.480469 C 1343.5 403.941406 1340.378906 397.050781 1335.371094 392.03125 C 1330.351562 387.019531 1323.460938 383.898438 1315.929688 383.898438 "/>
<path fill-rule="evenodd" fill="rgb(90.234375%, 90.234375%, 90.234375%)" fill-opacity="1" d="M 383.125 678.738281 L 1616.878906 678.738281 C 1663.171875 678.738281 1701.050781 716.621094 1701.050781 762.921875 L 1701.050781 1274.304688 C 1701.050781 1320.601562 1663.171875 1358.484375 1616.878906 1358.484375 L 383.125 1358.484375 C 336.828125 1358.484375 298.953125 1320.601562 298.953125 1274.304688 L 298.953125 762.921875 C 298.953125 716.621094 336.828125 678.738281 383.125 678.738281 "/>
<path fill-rule="nonzero" fill="rgb(14.501953%, 32.93457%, 68.943787%)" fill-opacity="1" d="M 383.125 638.96875 L 1616.878906 638.96875 C 1651 638.96875 1682 652.898438 1704.441406 675.351562 C 1726.878906 697.789062 1740.820312 728.789062 1740.820312 762.921875 L 1740.820312 1274.304688 C 1740.820312 1308.433594 1726.878906 1339.429688 1704.441406 1361.875 C 1682 1384.320312 1651 1398.253906 1616.878906 1398.253906 L 383.125 1398.253906 C 349 1398.253906 318 1384.320312 295.558594 1361.875 C 273.117188 1339.429688 259.183594 1308.433594 259.183594 1274.304688 L 259.183594 762.921875 C 259.183594 728.789062 273.117188 697.789062 295.558594 675.351562 C 318.003906 652.898438 349 638.96875 383.125 638.96875 Z M 1616.878906 718.511719 L 383.125 718.511719 C 370.957031 718.511719 359.863281 723.519531 351.796875 731.578125 C 343.730469 739.648438 338.722656 750.75 338.722656 762.921875 L 338.722656 1274.304688 C 338.722656 1286.476562 343.730469 1297.574219 351.796875 1305.636719 C 359.863281 1313.703125 370.957031 1318.714844 383.125 1318.714844 L 1616.878906 1318.714844 C 1629.039062 1318.714844 1640.140625 1313.703125 1648.199219 1305.636719 C 1656.269531 1297.574219 1661.28125 1286.476562 1661.28125 1274.304688 L 1661.28125 762.921875 C 1661.28125 750.75 1656.269531 739.648438 1648.199219 731.578125 C 1640.140625 723.519531 1629.039062 718.511719 1616.878906 718.511719 "/>
<path fill-rule="evenodd" fill="rgb(90.234375%, 90.234375%, 90.234375%)" fill-opacity="1" d="M 607.515625 978.121094 L 1392.480469 978.121094 L 1392.480469 1573.6875 C 1392.480469 1619.988281 1354.601562 1657.867188 1308.308594 1657.867188 L 691.695312 1657.867188 C 645.394531 1657.867188 607.515625 1619.988281 607.515625 1573.6875 L 607.515625 978.121094 "/>
<path fill-rule="nonzero" fill="rgb(27.830505%, 61.521912%, 100%)" fill-opacity="1" d="M 607.515625 938.351562 L 1432.25 938.351562 L 1432.25 1573.6875 C 1432.25 1607.816406 1418.320312 1638.8125 1395.878906 1661.257812 C 1373.429688 1683.703125 1342.429688 1697.636719 1308.308594 1697.636719 L 691.695312 1697.636719 C 657.566406 1697.636719 626.570312 1683.703125 604.125 1661.257812 C 581.679688 1638.8125 567.746094 1607.816406 567.746094 1573.6875 L 567.746094 938.351562 Z M 1352.710938 1017.890625 L 647.285156 1017.890625 L 647.285156 1573.6875 C 647.285156 1585.859375 652.296875 1596.953125 660.363281 1605.019531 C 668.429688 1613.089844 679.523438 1618.097656 691.695312 1618.097656 L 1308.308594 1618.097656 C 1320.480469 1618.097656 1331.570312 1613.089844 1339.640625 1605.019531 C 1347.710938 1596.953125 1352.710938 1585.859375 1352.710938 1573.6875 L 1352.710938 1017.890625 "/>
<path fill-rule="evenodd" fill="rgb(14.501953%, 32.93457%, 68.943787%)" fill-opacity="1" d="M 499.132812 933.921875 L 1500.871094 933.921875 C 1524.878906 933.921875 1544.53125 953.570312 1544.53125 977.578125 L 1544.53125 977.589844 C 1544.53125 1001.601562 1524.878906 1021.253906 1500.871094 1021.253906 L 499.132812 1021.253906 C 475.117188 1021.253906 455.46875 1001.601562 455.46875 977.589844 L 455.46875 977.578125 C 455.46875 953.570312 475.117188 933.921875 499.132812 933.921875 "/>
<path fill-rule="evenodd" fill="rgb(27.830505%, 61.521912%, 100%)" fill-opacity="1" d="M 804.285156 1189.085938 L 1195.710938 1189.085938 C 1219.730469 1189.085938 1239.378906 1208.738281 1239.378906 1232.753906 C 1239.378906 1256.769531 1219.730469 1276.421875 1195.710938 1276.421875 L 804.285156 1276.421875 C 780.269531 1276.421875 760.621094 1256.769531 760.621094 1232.753906 C 760.621094 1208.738281 780.269531 1189.085938 804.285156 1189.085938 "/>
<path fill-rule="evenodd" fill="rgb(27.830505%, 61.521912%, 100%)" fill-opacity="1" d="M 804.285156 1379.539062 L 1095.75 1379.539062 C 1119.769531 1379.539062 1139.421875 1399.191406 1139.421875 1423.207031 L 1139.421875 1423.210938 C 1139.421875 1447.226562 1119.769531 1466.878906 1095.75 1466.878906 L 804.285156 1466.878906 C 780.269531 1466.878906 760.621094 1447.226562 760.621094 1423.210938 L 760.621094 1423.207031 C 760.621094 1399.191406 780.269531 1379.539062 804.285156 1379.539062 "/>
</svg>
